<svg width="25" height="22" viewBox="0 0 25 22" fill="none" xmlns="http://www.w3.org/2000/svg">
<path d="M8.79799 16.5265H21.4008C21.8579 16.5265 22.2578 16.1498 22.2578 15.6319C22.2578 15.114 21.8579 14.7373 21.4008 14.7373H9.01508C8.42093 14.7373 8.06673 14.3253 7.97532 13.6897L7.80393 12.5243H21.4465C23.0576 12.5243 23.8803 11.512 24.1202 9.87587L24.9543 4.09631C24.9771 3.94328 25 3.76672 25 3.66078C25 3.084 24.6001 2.69556 23.9488 2.69556H6.40996L6.21572 1.35366C6.10146 0.447298 5.78154 0 4.63894 0H0.879799C0.399909 0 0 0.411985 0 0.906367C0 1.41252 0.399909 1.8245 0.879799 1.8245H4.43327L6.14717 13.9133C6.37569 15.5259 7.20978 16.5265 8.79799 16.5265ZM23.0233 4.47298L22.292 9.67576C22.2006 10.3232 21.8693 10.7234 21.2751 10.7234L7.55256 10.7352L6.66133 4.47298H23.0233ZM9.66636 22C10.6604 22 11.4602 21.176 11.4602 20.1402C11.4602 19.1161 10.6604 18.2921 9.66636 18.2921C8.66088 18.2921 7.86106 19.1161 7.86106 20.1402C7.86106 21.176 8.66088 22 9.66636 22ZM19.7326 22C20.7381 22 21.5379 21.176 21.5379 20.1402C21.5379 19.1161 20.7381 18.2921 19.7326 18.2921C18.7386 18.2921 17.9273 19.1161 17.9273 20.1402C17.9273 21.176 18.7386 22 19.7326 22Z" fill="white"/>
</svg>
