<svg width="64" height="64" viewBox="0 0 64 64" fill="none" xmlns="http://www.w3.org/2000/svg">
<path fill-rule="evenodd" clip-rule="evenodd" d="M27 25C24.2386 25 22 22.7614 22 20C22 17.2386 24.2386 15 27 15C29.7614 15 32 17.2386 32 20C32 22.7614 29.7614 25 27 25ZM27 17C25.3431 17 24 18.3431 24 20C24 21.6569 25.3431 23 27 23C28.6569 23 30 21.6569 30 20C30 18.3431 28.6569 17 27 17Z" fill="black"/>
<path fill-rule="evenodd" clip-rule="evenodd" d="M16 17C14.3431 17 13 18.3431 13 20C13 21.6569 14.3431 23 16 23H27H48.5C50.1569 23 51.5 21.6569 51.5 20C51.5 18.3431 50.1569 17 48.5 17H27H16ZM29.8293 19C29.4175 17.8348 28.3062 17 27 17C25.6938 17 24.5825 17.8348 24.1707 19H16C15.4477 19 15 19.4477 15 20C15 20.5523 15.4477 21 16 21H24.1707C24.5825 22.1652 25.6938 23 27 23C28.3062 23 29.4175 22.1652 29.8293 21H48.5C49.0523 21 49.5 20.5523 49.5 20C49.5 19.4477 49.0523 19 48.5 19H29.8293Z" fill="black"/>
<path fill-rule="evenodd" clip-rule="evenodd" d="M42 37C39.2386 37 37 34.7614 37 32C37 29.2386 39.2386 27 42 27C44.7614 27 47 29.2386 47 32C47 34.7614 44.7614 37 42 37ZM42 29C40.3431 29 39 30.3431 39 32C39 33.6569 40.3431 35 42 35C43.6569 35 45 33.6569 45 32C45 30.3431 43.6569 29 42 29Z" fill="black"/>
<path fill-rule="evenodd" clip-rule="evenodd" d="M16 29C14.3431 29 13 30.3431 13 32C13 33.6569 14.3431 35 16 35H42H48.5C50.1569 35 51.5 33.6569 51.5 32C51.5 30.3431 50.1569 29 48.5 29H42H16ZM44.8293 31C44.4175 29.8348 43.3062 29 42 29C40.6938 29 39.5825 29.8348 39.1707 31H16C15.4477 31 15 31.4477 15 32C15 32.5523 15.4477 33 16 33H39.1707C39.5825 34.1652 40.6938 35 42 35C43.3062 35 44.4175 34.1652 44.8293 33H48.5C49.0523 33 49.5 32.5523 49.5 32C49.5 31.4477 49.0523 31 48.5 31H44.8293Z" fill="black"/>
<path fill-rule="evenodd" clip-rule="evenodd" d="M29 49C26.2386 49 24 46.7614 24 44C24 41.2386 26.2386 39 29 39C31.7614 39 34 41.2386 34 44C34 46.7614 31.7614 49 29 49ZM29 41C27.3431 41 26 42.3431 26 44C26 45.6569 27.3431 47 29 47C30.6569 47 32 45.6569 32 44C32 42.3431 30.6569 41 29 41Z" fill="black"/>
<path fill-rule="evenodd" clip-rule="evenodd" d="M16 41C14.3431 41 13 42.3431 13 44C13 45.6569 14.3431 47 16 47H29H48.5C50.1569 47 51.5 45.6569 51.5 44C51.5 42.3431 50.1569 41 48.5 41H29H16ZM31.8293 43C31.4175 41.8348 30.3062 41 29 41C27.6938 41 26.5825 41.8348 26.1707 43H16C15.4477 43 15 43.4477 15 44C15 44.5523 15.4477 45 16 45H26.1707C26.5825 46.1652 27.6938 47 29 47C30.3062 47 31.4175 46.1652 31.8293 45H48.5C49.0523 45 49.5 44.5523 49.5 44C49.5 43.4477 49.0523 43 48.5 43H31.8293Z" fill="black"/>
</svg>
