<svg width="64" height="64" viewBox="0 0 64 64" fill="none" xmlns="http://www.w3.org/2000/svg">
<path fill-rule="evenodd" clip-rule="evenodd" d="M22 15H32V25H22V15ZM24 17V23H30V17H24Z" fill="black"/>
<path fill-rule="evenodd" clip-rule="evenodd" d="M16 17C14.3431 17 13 18.3431 13 20C13 21.6569 14.3431 23 16 23H24V21H16C15.4477 21 15 20.5523 15 20C15 19.4477 15.4477 19 16 19H24V17H16ZM30 17V19H48.5C49.0523 19 49.5 19.4477 49.5 20C49.5 20.5523 49.0523 21 48.5 21H30V23H48.5C50.1569 23 51.5 21.6569 51.5 20C51.5 18.3431 50.1569 17 48.5 17H30Z" fill="black"/>
<path fill-rule="evenodd" clip-rule="evenodd" d="M37 27H47V37H37V27ZM39 29V35H45V29H39Z" fill="black"/>
<path fill-rule="evenodd" clip-rule="evenodd" d="M16 29C14.3431 29 13 30.3431 13 32C13 33.6569 14.3431 35 16 35H39V33H16C15.4477 33 15 32.5523 15 32C15 31.4477 15.4477 31 16 31H39V29H16ZM45 29V31H48.5C49.0523 31 49.5 31.4477 49.5 32C49.5 32.5523 49.0523 33 48.5 33H45V35H48.5C50.1569 35 51.5 33.6569 51.5 32C51.5 30.3431 50.1569 29 48.5 29H45Z" fill="black"/>
<path fill-rule="evenodd" clip-rule="evenodd" d="M24 39H34V49H24V39ZM26 41V47H32V41H26Z" fill="black"/>
<path fill-rule="evenodd" clip-rule="evenodd" d="M16 41C14.3431 41 13 42.3431 13 44C13 45.6569 14.3431 47 16 47H26V45H16C15.4477 45 15 44.5523 15 44C15 43.4477 15.4477 43 16 43H26V41H16ZM32 41V43H48.5C49.0523 43 49.5 43.4477 49.5 44C49.5 44.5523 49.0523 45 48.5 45H32V47H48.5C50.1569 47 51.5 45.6569 51.5 44C51.5 42.3431 50.1569 41 48.5 41H32Z" fill="black"/>
</svg>
