<svg width="46" height="55" viewBox="0 0 46 55" fill="none" xmlns="http://www.w3.org/2000/svg">
<path d="M22.8571 54.8571C5.71428 41.1429 0 31.3187 0 21.9429C0 9.82415 10.2335 0 22.8571 0C35.4808 0 45.7143 9.82415 45.7143 21.9429C45.7143 31.3187 40 41.1429 22.8571 54.8571Z" fill="#006D66"/>
<path fill-rule="evenodd" clip-rule="evenodd" d="M18.4577 18.8547H13.1605C12.8766 18.8547 12.5955 18.908 12.3333 19.0116C12.071 19.1152 11.8327 19.267 11.6321 19.4584C11.4314 19.6497 11.2723 19.8769 11.1639 20.1269C11.0554 20.3768 10.9997 20.6447 11 20.9152V29.7599C11 30.0303 11.0559 30.298 11.1645 30.5477C11.273 30.7975 11.4322 31.0244 11.6328 31.2156C11.8334 31.4067 12.0716 31.5583 12.3337 31.6618C12.5959 31.7652 12.8768 31.8185 13.1605 31.8185H18.4577C18.7415 31.8185 19.0224 31.7652 19.2845 31.6618C19.5467 31.5583 19.7848 31.4067 19.9855 31.2156C20.1861 31.0244 20.3452 30.7975 20.4538 30.5477C20.5624 30.298 20.6183 30.0303 20.6183 29.7599V20.9152C20.6185 20.6447 20.5628 20.3768 20.4544 20.1269C20.3459 19.8769 20.1868 19.6497 19.9862 19.4584C19.7855 19.267 19.5473 19.1152 19.285 19.0116C19.0228 18.908 18.7416 18.8547 18.4577 18.8547Z" fill="#F1F0EB"/>
<path fill-rule="evenodd" clip-rule="evenodd" d="M26.1498 13H19.7133C18.8678 13.0001 18.0453 13.2861 17.3703 13.8147L12.8056 17.3872C12.75 17.4311 12.7088 17.4917 12.6877 17.5607C12.6666 17.6298 12.6666 17.704 12.6877 17.7731C12.7087 17.8421 12.7498 17.9028 12.8054 17.9467C12.8609 17.9906 12.9282 18.0156 12.9979 18.0182H19.4306C20.2761 18.0181 21.0985 17.7321 21.7735 17.2035L26.3383 13.631C26.3939 13.5872 26.435 13.5266 26.4562 13.4575C26.4773 13.3884 26.4773 13.3143 26.4562 13.2452C26.4352 13.1761 26.3941 13.1155 26.3385 13.0716C26.283 13.0277 26.2157 13.0027 26.146 13" fill="#F1F0EB"/>
<path fill-rule="evenodd" clip-rule="evenodd" d="M28.576 25.9638H32.3183C33.2481 25.9638 34.0008 25.0249 34.0008 23.868V15.0958C34.0008 13.9389 33.2386 13 32.3183 13H28.576C27.6462 13 26.8916 13.9389 26.8916 15.0958V23.864C26.8916 25.0209 27.6538 25.9598 28.576 25.9598" fill="#F1F0EB"/>
<path fill-rule="evenodd" clip-rule="evenodd" d="M26.5873 31.4001C27.53 31.4006 28.442 31.0591 29.1596 30.4367L33.0268 27.0859C33.2854 26.8645 33.1541 26.3818 32.8309 26.3818H27.3455C26.4313 26.3822 25.5455 26.7042 24.8378 27.2933L20.7551 30.684C20.4965 30.9054 20.6278 31.3881 20.951 31.3881L26.5873 31.4001Z" fill="#F1F0EB"/>
</svg>
